<?xml version="1.0" encoding="UTF-8"?>
<svg width="512" height="512" viewBox="0 0 512 512" xmlns="http://www.w3.org/2000/svg" role="img" aria-label="Ãcone de calculadora">
  <defs>
    <linearGradient id="g" x1="0" x2="1" y1="0" y2="1">
      <stop offset="0%" stop-color="#16a34a"/>
      <stop offset="100%" stop-color="#22c55e"/>
    </linearGradient>
    <filter id="sombra" x="-20%" y="-20%" width="140%" height="140%">
      <feDropShadow dx="0" dy="8" stdDeviation="12" flood-color="rgba(0,0,0,0.2)"/>
    </filter>
  </defs>
  <rect x="56" y="40" width="400" height="432" rx="24" fill="#0f172a" filter="url(#sombra)"/>
  <rect x="80" y="64" width="352" height="96" rx="12" fill="url(#g)"/>
  <rect x="104" y="184" width="304" height="248" rx="16" fill="#111827"/>
  <!-- Teclas -->
  <g fill="#1f2937">
    <rect x="124" y="204" width="56" height="48" rx="8"/>
    <rect x="196" y="204" width="56" height="48" rx="8"/>
    <rect x="268" y="204" width="56" height="48" rx="8"/>
    <rect x="340" y="204" width="56" height="48" rx="8"/>

    <rect x="124" y="264" width="56" height="48" rx="8"/>
    <rect x="196" y="264" width="56" height="48" rx="8"/>
    <rect x="268" y="264" width="56" height="48" rx="8"/>
    <rect x="340" y="264" width="56" height="48" rx="8"/>

    <rect x="124" y="324" width="56" height="48" rx="8"/>
    <rect x="196" y="324" width="56" height="48" rx="8"/>
    <rect x="268" y="324" width="56" height="48" rx="8"/>
    <rect x="340" y="324" width="56" height="48" rx="8"/>

    <rect x="124" y="384" width="56" height="32" rx="8"/>
    <rect x="196" y="384" width="56" height="32" rx="8"/>
    <rect x="268" y="384" width="56" height="32" rx="8"/>
    <rect x="340" y="384" width="56" height="32" rx="8"/>
  </g>
  <!-- Brilho da tela -->
  <rect x="90" y="74" width="332" height="76" rx="10" fill="rgba(255,255,255,0.18)"/>
</svg>
